<?xml version="1.0" encoding="UTF-8"?>
<svg id="_レイヤー_2" xmlns="http://www.w3.org/2000/svg" xmlns:xlink="http://www.w3.org/1999/xlink" version="1.1" viewBox="0 0 577.2 137.4">
  <!-- Generator: Adobe Illustrator 30.0.0, SVG Export Plug-In . SVG Version: 2.1.1 Build 123)  -->
  <defs>
    <style>
      .st0 {
        fill: none;
      }

      .st1 {
        fill: url(#FLN_Gradation1);
      }

      .st2 {
        fill: url(#FLN_Gradation);
      }
    </style>
    <linearGradient id="FLN_Gradation" data-name="FLN Gradation" x1="22.7" y1="68.6" x2="251.6" y2="68.6" gradientUnits="userSpaceOnUse">
      <stop offset="0" stop-color="#00aad7"/>
      <stop offset=".5" stop-color="#8796dc"/>
      <stop offset="1" stop-color="#f05a96"/>
    </linearGradient>
    <linearGradient id="FLN_Gradation1" data-name="FLN Gradation" x1="554" y1="93.7" x2="498.8" y2="93.7" xlink:href="#FLN_Gradation"/>
  </defs>
  <g>
    <g>
      <path d="M280.2,22.8h22.8l-.9,6.5h-12.8v10.2h11.1v6.5h-11.1v15.2h-9V22.8Z"/>
      <path d="M330.5,61h-7.6l-.4-3.7c-2.1,3.1-5,4.6-8.9,4.6s-8.2-3.5-8.2-9.2v-21h8.7v19.9c0,3,1,3.9,2.8,3.9s3.5-1.2,4.7-3.4v-20.4h8.7v29.3Z"/>
      <path d="M356.2,59.6c-2.2,1.5-5.3,2.3-7.9,2.3-6.5,0-9.6-3.7-9.6-10.6v-13.6h-4.1v-6.1h4.1v-6.3l8.7-1v7.3h6.7l-.9,6.1h-5.8v13.5c0,2.8.9,3.8,2.8,3.8s2-.3,3.1-.9l2.9,5.5Z"/>
      <path d="M383.9,61h-7.6l-.4-3.7c-2.1,3.1-5,4.6-8.9,4.6s-8.2-3.5-8.2-9.2v-21h8.7v19.9c0,3,1,3.9,2.8,3.9s3.5-1.2,4.7-3.4v-20.4h8.7v29.3Z"/>
      <path d="M409.1,31.3l-1.4,8.4c-.9-.2-1.7-.4-2.6-.4-3.6,0-5.1,2.6-6.1,7v14.7h-8.7v-29.3h7.6l.8,5.7c1.3-4.1,4.2-6.5,7.6-6.5s1.9.1,2.9.4Z"/>
      <path d="M436.9,48.9h-18.1c.6,5.2,3,6.7,6.6,6.7s4.5-.8,7-2.6l3.6,4.9c-2.9,2.3-6.7,4.1-11.4,4.1-9.8,0-14.7-6.3-14.7-15.5s4.8-15.7,13.7-15.7,13.5,5.5,13.5,15,0,2.3-.2,3.1ZM428.5,43.3c0-4-1.3-6.7-4.7-6.7s-4.6,1.8-5,7.1h9.8v-.4Z"/>
      <path d="M461.4,53.8h14.9l-.9,7.2h-23V22.8h9v31.1Z"/>
      <path d="M489.9,21.2c0,2.8-2.1,5-5.2,5s-5.1-2.2-5.1-5,2.2-5,5.1-5,5.2,2.2,5.2,5ZM489.1,61h-8.7v-29.3h8.7v29.3Z"/>
      <path d="M521.2,39.6v21.4h-8.7v-19.9c0-3.1-1-3.9-2.8-3.9s-3.6,1.4-5.1,3.8v20h-8.7v-29.3h7.6l.7,3.5c2.4-2.9,5.2-4.5,8.9-4.5s8.1,3.3,8.1,8.8Z"/>
      <path d="M536,61h-8.7V20.1l8.7-.9v41.9ZM545.2,44.6l9.6,16.4h-9.8l-8.7-16,8.9-13.3h8.9l-8.9,12.9Z"/>
      <path d="M309.6,114.4h-11.5l-11-29.6c.4,3.5,1.2,8.6,1.2,15.6v14h-8.1v-38.2h11.3l11.3,29.7c-.5-3.1-1.2-8.1-1.2-14.2v-15.5h8.1v38.2Z"/>
      <path d="M341.7,102.3h-18.1c.6,5.2,3,6.7,6.6,6.7s4.5-.8,7-2.6l3.6,4.9c-2.9,2.3-6.7,4.1-11.4,4.1-9.8,0-14.7-6.3-14.7-15.5s4.8-15.7,13.7-15.7,13.5,5.5,13.5,15,0,2.3-.2,3.1ZM333.3,96.6c0-4-1.3-6.7-4.7-6.7s-4.6,1.8-5,7.1h9.8v-.4Z"/>
      <path d="M365.2,113c-2.2,1.5-5.3,2.3-7.9,2.3-6.5,0-9.6-3.7-9.6-10.6v-13.6h-4.1v-6.1h4.1v-6.3l8.7-1v7.3h6.7l-.9,6.1h-5.8v13.5c0,2.8.9,3.8,2.8,3.8s2-.3,3.1-.9l2.9,5.5Z"/>
      <path d="M400.3,114.4h-10.4l-3.9-21.5-3.9,21.5h-10.3l-6.2-29.3h8.8l3,22.8,4.6-22.8h8.5l4,22.8,3.5-22.8h8.3l-6.1,29.3Z"/>
      <path d="M437,99.7c0,9.4-5.4,15.6-14.3,15.6s-14.3-5.7-14.3-15.6,5.4-15.6,14.3-15.6,14.3,5.7,14.3,15.6ZM417.3,99.7c0,6.5,1.8,9.2,5.3,9.2s5.3-2.8,5.3-9.2-1.8-9.2-5.3-9.2-5.3,2.8-5.3,9.2Z"/>
      <path d="M460.7,84.6l-1.4,8.4c-.9-.2-1.7-.4-2.6-.4-3.6,0-5.1,2.6-6.1,7v14.7h-8.7v-29.3h7.6l.8,5.7c1.3-4.1,4.2-6.5,7.6-6.5s1.9.1,2.9.4Z"/>
      <path d="M472.8,114.4h-8.7v-40.9l8.7-.9v41.9ZM482,97.9l9.6,16.4h-9.8l-8.7-16,8.9-13.3h8.9l-8.9,12.9Z"/>
    </g>
    <path class="st2" d="M45.6,102.9c0-2,0-4.3.8-6.3.8-2,2.4-3.6,4.4-4.4,2-.8,4.2-.8,6.3-.8h11.4v-22.9h-11.4c-2,0-4.3,0-6.3-.8-2-.8-3.6-2.4-4.4-4.4-.8-2-.8-4.2-.8-6.3h0c0-2,0-4.3.8-6.3.8-2,2.4-3.6,4.4-4.4,2-.8,4.2-.8,6.3-.8h0s22.9,0,22.9,0h0c2,0,4.3,0,6.3.8,2,.8,3.6,2.4,4.4,4.4.8,2,.8,4.2.8,6.3v11.4h11.4c2,0,4.3,0,6.3.8,2,.8,3.6,2.4,4.4,4.4.8,2,.8,4.2.8,6.3h0v34.3h68.7v-22.9h-34.3c-2,0-4.3,0-6.3-.8-2-.8-3.6-2.4-4.4-4.4-.8-2-.8-4.2-.8-6.3h0v-11.4h-11.4c-2,0-4.3,0-6.3-.8-2-.8-3.6-2.4-4.4-4.4-.8-2-.8-4.2-.8-6.3h0c0-2,0-4.3.8-6.3.8-2,2.4-3.6,4.4-4.4,2-.8,4.2-.8,6.3-.8h0s11.4,0,11.4,0v-22.9h-22.9v11.4h0c0,2,0,4.3-.8,6.3-.8,2-2.4,3.6-4.4,4.4-2,.8-4.2.8-6.3.8h0c-2,0-4.3,0-6.3-.8-2-.8-3.6-2.4-4.4-4.4-.8-2-.8-4.2-.8-6.3v-11.4h-45.8v11.4c0,2,0,4.3-.8,6.3-.8,2-2.4,3.6-4.4,4.4-2,.8-4.2.8-6.3.8h-11.4v68.7h22.9v-11.4ZM251.6,114.4v-22.9h-22.9v22.9h22.9ZM205.8,68.6v-22.9h-22.9v22.9h22.9ZM182.9,45.7v-22.9h-22.9v22.9h22.9ZM228.7,22.8v33.8c0,2.1,0,4.5-.9,6.6-.9,2.1-2.5,3.7-4.6,4.6-2.1.9-6.6.9-6.6.9h-10.9v22.9h22.9v-10.9h0c0-2.1,0-4.5.9-6.6.9-2.1,2.5-3.7,4.6-4.6,2.1-.9,6.6-.9,6.6-.9h10.9V22.8h-22.9Z"/>
    <path class="st1" d="M519.5,114.4c-1.3,0-2.6,0-3.8-.5-1.2-.5-2.1-1.4-2.6-2.6-.5-1.2-.5-2.5-.5-3.8s0-2.6.5-3.8c.5-1.2,1.4-2.1,2.6-2.6,1.2-.5,2.5-.5,3.8-.5h.1c.3,0,.6,0,.9,0,0,0,.1,0,.2,0,1.5,0,3-.6,4-1.7,1.1-1.1,1.7-2.6,1.7-4.2,0-.4,0-.7,0-1.1s0-.7,0-1.1c0-1.6-.6-3.1-1.7-4.2-1.1-1.1-2.5-1.7-4-1.7s-.1,0-.2,0c-.3,0-.6,0-.9,0h-.1c-1.3,0-2.6,0-3.8-.5-1.2-.5-2.1-1.4-2.6-2.6-.5-1.2-.5-2.5-.5-3.8s0-2.6.5-3.8c.5-1.2,1.4-2.1,2.6-2.6,1.2-.5,2.5-.5,3.8-.5s2.6,0,3.8.5c1.2.5,2.1,1.4,2.6,2.6.5,1.2.5,2.5.5,3.8s0,.7,0,1.1c0,1.6.6,3.1,1.7,4.2,1.1,1.1,2.5,1.7,4,1.7s.1,0,.2,0c.3,0,.6,0,.9,0h.2c.3,0,.6,0,1,0,0,0,.1,0,.2,0,1.5,0,3-.6,4-1.7,1.1-1.1,1.7-2.6,1.7-4.2,0-.4,0-.7,0-1.1,0-1.3,0-2.6.5-3.8.5-1.2,1.4-2.1,2.6-2.6,1.2-.5,2.5-.5,3.8-.5s2.6,0,3.8.5c1.2.5,2.1,1.4,2.6,2.6.5,1.2.5,2.5.5,3.8s0,2.6-.5,3.8c-.5,1.2-1.4,2.1-2.6,2.6-1.2.5-2.5.5-3.8.5h-.1c-.3,0-.6,0-1,0,0,0-.1,0-.2,0-1.5,0-3,.6-4,1.7-1.1,1.1-1.7,2.6-1.7,4.2,0,.4,0,.7,0,1.1,0,1.3,0,2.6-.5,3.8-.5,1.2-1.4,2.1-2.6,2.6-1.2.5-2.5.5-3.8.5h-.1c-.3,0-.6,0-.9,0,0,0-.1,0-.2,0-1.5,0-3,.6-4,1.7-1.1,1.1-1.7,2.6-1.7,4.2,0,.4,0,.7,0,1.1,0,1.3,0,2.6-.5,3.8-.5,1.2-1.4,2.1-2.6,2.6-1.2.5-2.5.5-3.8.5ZM554,107.6c0-1.2,0-2.6-.5-3.8-.5-1.2-1.4-2.1-2.6-2.6-1.2-.5-2.5-.5-3.8-.5h0c-1.2,0-2.6,0-3.8.5-1.2.5-2.1,1.4-2.6,2.6-.5,1.2-.5,2.5-.5,3.8h0c0,1.2,0,2.6.5,3.8.5,1.2,1.4,2.1,2.6,2.6,1.2.5,2.5.5,3.8.5h0c1.2,0,2.6,0,3.8-.5,1.2-.5,2.1-1.4,2.6-2.6.5-1.2.5-2.5.5-3.8h0ZM512.5,93.7c0-1.2,0-2.6-.5-3.8-.5-1.2-1.4-2.1-2.6-2.6-1.2-.5-2.5-.5-3.8-.5h0c-1.2,0-2.6,0-3.8.5-1.2.5-2.1,1.4-2.6,2.6-.5,1.2-.5,2.5-.5,3.8h0c0,1.2,0,2.6.5,3.8.5,1.2,1.4,2.1,2.6,2.6,1.2.5,2.5.5,3.8.5h0c1.2,0,2.6,0,3.8-.5,1.2-.5,2.1-1.4,2.6-2.6.5-1.2.5-2.5.5-3.8h0Z"/>
  </g>
  <rect class="st0" x="-.2" y="-.1" width="577.2" height="137.4"/>
</svg>